<svg width="98" height="25" viewBox="0 0 98 25" fill="none" xmlns="http://www.w3.org/2000/svg">
<path d="M47.44 13.272C48.0693 13.3893 48.5867 13.704 48.992 14.216C49.3973 14.728 49.6 15.3147 49.6 15.976C49.6 16.5733 49.4507 17.1013 49.152 17.56C48.864 18.008 48.4427 18.36 47.888 18.616C47.3333 18.872 46.6773 19 45.92 19H41.104V7.832H45.712C46.4693 7.832 47.12 7.95467 47.664 8.2C48.2187 8.44533 48.6347 8.78667 48.912 9.224C49.2 9.66133 49.344 10.1573 49.344 10.712C49.344 11.3627 49.168 11.9067 48.816 12.344C48.4747 12.7813 48.016 13.0907 47.44 13.272ZM43.344 12.44H45.392C45.9253 12.44 46.336 12.3227 46.624 12.088C46.912 11.8427 47.056 11.496 47.056 11.048C47.056 10.6 46.912 10.2533 46.624 10.008C46.336 9.76267 45.9253 9.64 45.392 9.64H43.344V12.44ZM45.6 17.176C46.144 17.176 46.5653 17.048 46.864 16.792C47.1733 16.536 47.328 16.1733 47.328 15.704C47.328 15.224 47.168 14.8507 46.848 14.584C46.528 14.3067 46.096 14.168 45.552 14.168H43.344V17.176H45.6ZM59.6253 14.376C59.6253 14.696 59.6039 14.984 59.5613 15.24H53.0813C53.1346 15.88 53.3586 16.3813 53.7533 16.744C54.1479 17.1067 54.6333 17.288 55.2093 17.288C56.0413 17.288 56.6333 16.9307 56.9853 16.216H59.4013C59.1453 17.0693 58.6546 17.7733 57.9293 18.328C57.2039 18.872 56.3133 19.144 55.2573 19.144C54.4039 19.144 53.6359 18.9573 52.9533 18.584C52.2813 18.2 51.7533 17.6613 51.3693 16.968C50.9959 16.2747 50.8092 15.4747 50.8092 14.568C50.8092 13.6507 50.9959 12.8453 51.3693 12.152C51.7426 11.4587 52.2653 10.9253 52.9373 10.552C53.6093 10.1787 54.3826 9.992 55.2573 9.992C56.0999 9.992 56.8519 10.1733 57.5133 10.536C58.1853 10.8987 58.7026 11.416 59.0653 12.088C59.4386 12.7493 59.6253 13.512 59.6253 14.376ZM57.3053 13.736C57.2946 13.16 57.0866 12.7013 56.6813 12.36C56.2759 12.008 55.7799 11.832 55.1933 11.832C54.6386 11.832 54.1693 12.0027 53.7853 12.344C53.4119 12.6747 53.1826 13.1387 53.0973 13.736H57.3053ZM60.6842 14.536C60.6842 13.64 60.8602 12.8453 61.2122 12.152C61.5749 11.4587 62.0603 10.9253 62.6683 10.552C63.2869 10.1787 63.9749 9.992 64.7323 9.992C65.3936 9.992 65.9696 10.1253 66.4603 10.392C66.9616 10.6587 67.3616 10.9947 67.6603 11.4V10.136H69.9163V19H67.6603V17.704C67.3723 18.12 66.9723 18.4667 66.4603 18.744C65.9589 19.0107 65.3776 19.144 64.7163 19.144C63.9696 19.144 63.2869 18.952 62.6683 18.568C62.0603 18.184 61.5749 17.6453 61.2122 16.952C60.8602 16.248 60.6842 15.4427 60.6842 14.536ZM67.6603 14.568C67.6603 14.024 67.5536 13.56 67.3403 13.176C67.1269 12.7813 66.8389 12.4827 66.4763 12.28C66.1136 12.0667 65.7243 11.96 65.3083 11.96C64.8923 11.96 64.5083 12.0613 64.1562 12.264C63.8043 12.4667 63.5163 12.7653 63.2923 13.16C63.0789 13.544 62.9723 14.0027 62.9723 14.536C62.9723 15.0693 63.0789 15.5387 63.2923 15.944C63.5163 16.3387 63.8043 16.6427 64.1562 16.856C64.5189 17.0693 64.9029 17.176 65.3083 17.176C65.7243 17.176 66.1136 17.0747 66.4763 16.872C66.8389 16.6587 67.1269 16.36 67.3403 15.976C67.5536 15.5813 67.6603 15.112 67.6603 14.568ZM80.472 10.136V19H78.216V17.88C77.928 18.264 77.5493 18.568 77.08 18.792C76.6213 19.0053 76.12 19.112 75.576 19.112C74.8827 19.112 74.2693 18.968 73.736 18.68C73.2027 18.3813 72.7813 17.9493 72.472 17.384C72.1733 16.808 72.024 16.1253 72.024 15.336V10.136H74.264V15.016C74.264 15.72 74.44 16.264 74.792 16.648C75.144 17.0213 75.624 17.208 76.232 17.208C76.8507 17.208 77.336 17.0213 77.688 16.648C78.04 16.264 78.216 15.72 78.216 15.016V10.136H80.472ZM85.2901 11.976V16.264C85.2901 16.5627 85.3595 16.7813 85.4981 16.92C85.6475 17.048 85.8928 17.112 86.2341 17.112H87.2741V19H85.8661C83.9781 19 83.0341 18.0827 83.0341 16.248V11.976H81.9781V10.136H83.0341V7.944H85.2901V10.136H87.2741V11.976H85.2901ZM97.3653 10.136L91.8773 23.192H89.4933L91.4133 18.776L87.8613 10.136H90.3733L92.6613 16.328L94.9813 10.136H97.3653Z" fill="#FF64AE"/>
<path d="M22.6562 6.25H13.2812L10.1562 3.125H2.34375C1.04932 3.125 0 4.17432 0 5.46875V19.5312C0 20.8257 1.04932 21.875 2.34375 21.875H22.6562C23.9507 21.875 25 20.8257 25 19.5312V8.59375C25 7.29932 23.9507 6.25 22.6562 6.25Z" fill="#FF64AE"/>
</svg>
