<svg width="135" height="25" viewBox="0 0 135 25" fill="none" xmlns="http://www.w3.org/2000/svg">
<path d="M48.704 7.832V9.64H45.728V19H43.488V9.64H40.512V7.832H48.704ZM52.5784 11.512C52.8664 11.0427 53.2397 10.6747 53.6984 10.408C54.1677 10.1413 54.701 10.008 55.2984 10.008V12.36H54.7064C54.0024 12.36 53.469 12.5253 53.1064 12.856C52.7544 13.1867 52.5784 13.7627 52.5784 14.584V19H50.3384V10.136H52.5784V11.512ZM65.0471 14.376C65.0471 14.696 65.0258 14.984 64.9831 15.24H58.5031C58.5565 15.88 58.7805 16.3813 59.1751 16.744C59.5698 17.1067 60.0551 17.288 60.6311 17.288C61.4631 17.288 62.0551 16.9307 62.4071 16.216H64.8231C64.5671 17.0693 64.0765 17.7733 63.3511 18.328C62.6258 18.872 61.7351 19.144 60.6791 19.144C59.8258 19.144 59.0578 18.9573 58.3751 18.584C57.7031 18.2 57.1751 17.6613 56.7911 16.968C56.4178 16.2747 56.2311 15.4747 56.2311 14.568C56.2311 13.6507 56.4178 12.8453 56.7911 12.152C57.1645 11.4587 57.6871 10.9253 58.3591 10.552C59.0311 10.1787 59.8045 9.992 60.6791 9.992C61.5218 9.992 62.2738 10.1733 62.9351 10.536C63.6071 10.8987 64.1245 11.416 64.4871 12.088C64.8605 12.7493 65.0471 13.512 65.0471 14.376ZM62.7271 13.736C62.7165 13.16 62.5085 12.7013 62.1031 12.36C61.6978 12.008 61.2018 11.832 60.6151 11.832C60.0605 11.832 59.5911 12.0027 59.2071 12.344C58.8338 12.6747 58.6045 13.1387 58.5191 13.736H62.7271ZM66.1061 14.536C66.1061 13.64 66.2821 12.8453 66.6341 12.152C66.9968 11.4587 67.4821 10.9253 68.0901 10.552C68.7088 10.1787 69.3968 9.992 70.1541 9.992C70.8155 9.992 71.3915 10.1253 71.8821 10.392C72.3835 10.6587 72.7835 10.9947 73.0821 11.4V10.136H75.3381V19H73.0821V17.704C72.7941 18.12 72.3941 18.4667 71.8821 18.744C71.3808 19.0107 70.7995 19.144 70.1381 19.144C69.3915 19.144 68.7088 18.952 68.0901 18.568C67.4821 18.184 66.9968 17.6453 66.6341 16.952C66.2821 16.248 66.1061 15.4427 66.1061 14.536ZM73.0821 14.568C73.0821 14.024 72.9755 13.56 72.7621 13.176C72.5488 12.7813 72.2608 12.4827 71.8981 12.28C71.5355 12.0667 71.1461 11.96 70.7301 11.96C70.3141 11.96 69.9301 12.0613 69.5781 12.264C69.2261 12.4667 68.9381 12.7653 68.7141 13.16C68.5008 13.544 68.3941 14.0027 68.3941 14.536C68.3941 15.0693 68.5008 15.5387 68.7141 15.944C68.9381 16.3387 69.2261 16.6427 69.5781 16.856C69.9408 17.0693 70.3248 17.176 70.7301 17.176C71.1461 17.176 71.5355 17.0747 71.8981 16.872C72.2608 16.6587 72.5488 16.36 72.7621 15.976C72.9755 15.5813 73.0821 15.112 73.0821 14.568ZM80.1339 11.976V16.264C80.1339 16.5627 80.2032 16.7813 80.3419 16.92C80.4912 17.048 80.7365 17.112 81.0779 17.112H82.1179V19H80.7099C78.8219 19 77.8779 18.0827 77.8779 16.248V11.976H76.8219V10.136H77.8779V7.944H80.1339V10.136H82.1179V11.976H80.1339ZM94.737 10.008C95.825 10.008 96.6997 10.344 97.361 11.016C98.033 11.6773 98.369 12.6053 98.369 13.8V19H96.129V14.104C96.129 13.4107 95.953 12.8827 95.601 12.52C95.249 12.1467 94.769 11.96 94.161 11.96C93.553 11.96 93.0677 12.1467 92.705 12.52C92.353 12.8827 92.177 13.4107 92.177 14.104V19H89.937V14.104C89.937 13.4107 89.761 12.8827 89.409 12.52C89.057 12.1467 88.577 11.96 87.969 11.96C87.3503 11.96 86.8597 12.1467 86.497 12.52C86.145 12.8827 85.969 13.4107 85.969 14.104V19H83.729V10.136H85.969V11.208C86.257 10.8347 86.625 10.5413 87.073 10.328C87.5317 10.1147 88.033 10.008 88.577 10.008C89.2703 10.008 89.889 10.1573 90.433 10.456C90.977 10.744 91.3983 11.16 91.697 11.704C91.985 11.192 92.401 10.7813 92.945 10.472C93.4997 10.1627 94.097 10.008 94.737 10.008ZM108.735 14.376C108.735 14.696 108.713 14.984 108.671 15.24H102.191C102.244 15.88 102.468 16.3813 102.863 16.744C103.257 17.1067 103.743 17.288 104.319 17.288C105.151 17.288 105.743 16.9307 106.095 16.216H108.511C108.255 17.0693 107.764 17.7733 107.039 18.328C106.313 18.872 105.423 19.144 104.367 19.144C103.513 19.144 102.745 18.9573 102.063 18.584C101.391 18.2 100.863 17.6613 100.479 16.968C100.105 16.2747 99.9186 15.4747 99.9186 14.568C99.9186 13.6507 100.105 12.8453 100.479 12.152C100.852 11.4587 101.375 10.9253 102.047 10.552C102.719 10.1787 103.492 9.992 104.367 9.992C105.209 9.992 105.961 10.1733 106.623 10.536C107.295 10.8987 107.812 11.416 108.175 12.088C108.548 12.7493 108.735 13.512 108.735 14.376ZM106.415 13.736C106.404 13.16 106.196 12.7013 105.791 12.36C105.385 12.008 104.889 11.832 104.303 11.832C103.748 11.832 103.279 12.0027 102.895 12.344C102.521 12.6747 102.292 13.1387 102.207 13.736H106.415ZM115.282 10.008C116.338 10.008 117.191 10.344 117.842 11.016C118.492 11.6773 118.818 12.6053 118.818 13.8V19H116.578V14.104C116.578 13.4 116.402 12.8613 116.05 12.488C115.698 12.104 115.218 11.912 114.61 11.912C113.991 11.912 113.5 12.104 113.138 12.488C112.786 12.8613 112.61 13.4 112.61 14.104V19H110.37V10.136H112.61V11.24C112.908 10.856 113.287 10.5573 113.746 10.344C114.215 10.12 114.727 10.008 115.282 10.008ZM123.556 11.976V16.264C123.556 16.5627 123.625 16.7813 123.764 16.92C123.913 17.048 124.158 17.112 124.5 17.112H125.54V19H124.132C122.244 19 121.3 18.0827 121.3 16.248V11.976H120.244V10.136H121.3V7.944H123.556V10.136H125.54V11.976H123.556ZM130.543 19.144C129.818 19.144 129.167 19.016 128.591 18.76C128.015 18.4933 127.556 18.136 127.215 17.688C126.884 17.24 126.703 16.744 126.671 16.2H128.927C128.97 16.5413 129.135 16.824 129.423 17.048C129.722 17.272 130.09 17.384 130.527 17.384C130.954 17.384 131.284 17.2987 131.519 17.128C131.764 16.9573 131.887 16.7387 131.887 16.472C131.887 16.184 131.738 15.9707 131.439 15.832C131.151 15.6827 130.687 15.5227 130.047 15.352C129.386 15.192 128.842 15.0267 128.415 14.856C127.999 14.6853 127.636 14.424 127.327 14.072C127.028 13.72 126.879 13.2453 126.879 12.648C126.879 12.1573 127.018 11.7093 127.295 11.304C127.583 10.8987 127.988 10.5787 128.511 10.344C129.044 10.1093 129.668 9.992 130.383 9.992C131.439 9.992 132.282 10.2587 132.911 10.792C133.54 11.3147 133.887 12.024 133.951 12.92H131.807C131.775 12.568 131.626 12.2907 131.359 12.088C131.103 11.8747 130.756 11.768 130.319 11.768C129.914 11.768 129.599 11.8427 129.375 11.992C129.162 12.1413 129.055 12.3493 129.055 12.616C129.055 12.9147 129.204 13.144 129.503 13.304C129.802 13.4533 130.266 13.608 130.895 13.768C131.535 13.928 132.063 14.0933 132.479 14.264C132.895 14.4347 133.252 14.7013 133.551 15.064C133.86 15.416 134.02 15.8853 134.031 16.472C134.031 16.984 133.887 17.4427 133.599 17.848C133.322 18.2533 132.916 18.5733 132.383 18.808C131.86 19.032 131.247 19.144 130.543 19.144Z" fill="#FF64AE"/>
<path d="M22.6562 6.25H13.2812L10.1562 3.125H2.34375C1.04932 3.125 0 4.17432 0 5.46875V19.5312C0 20.8257 1.04932 21.875 2.34375 21.875H22.6562C23.9507 21.875 25 20.8257 25 19.5312V8.59375C25 7.29932 23.9507 6.25 22.6562 6.25Z" fill="#FF64AE"/>
</svg>
