<svg width="146" height="25" viewBox="0 0 146 25" fill="none" xmlns="http://www.w3.org/2000/svg">
<path d="M40.56 13.4C40.56 12.3013 40.8053 11.32 41.296 10.456C41.7973 9.58133 42.4747 8.904 43.328 8.424C44.192 7.93333 45.1573 7.688 46.224 7.688C47.472 7.688 48.5653 8.008 49.504 8.648C50.4427 9.288 51.0987 10.1733 51.472 11.304H48.896C48.64 10.7707 48.2773 10.3707 47.808 10.104C47.3493 9.83733 46.816 9.704 46.208 9.704C45.5573 9.704 44.976 9.85867 44.464 10.168C43.9627 10.4667 43.568 10.8933 43.28 11.448C43.0027 12.0027 42.864 12.6533 42.864 13.4C42.864 14.136 43.0027 14.7867 43.28 15.352C43.568 15.9067 43.9627 16.3387 44.464 16.648C44.976 16.9467 45.5573 17.096 46.208 17.096C46.816 17.096 47.3493 16.9627 47.808 16.696C48.2773 16.4187 48.64 16.0133 48.896 15.48H51.472C51.0987 16.6213 50.4427 17.512 49.504 18.152C48.576 18.7813 47.4827 19.096 46.224 19.096C45.1573 19.096 44.192 18.856 43.328 18.376C42.4747 17.8853 41.7973 17.208 41.296 16.344C40.8053 15.48 40.56 14.4987 40.56 13.4ZM57.3213 19.144C56.4679 19.144 55.6999 18.9573 55.0173 18.584C54.3346 18.2 53.7959 17.6613 53.4013 16.968C53.0173 16.2747 52.8253 15.4747 52.8253 14.568C52.8253 13.6613 53.0226 12.8613 53.4173 12.168C53.8226 11.4747 54.3719 10.9413 55.0653 10.568C55.7586 10.184 56.5319 9.992 57.3853 9.992C58.2386 9.992 59.0119 10.184 59.7053 10.568C60.3986 10.9413 60.9426 11.4747 61.3373 12.168C61.7426 12.8613 61.9453 13.6613 61.9453 14.568C61.9453 15.4747 61.7373 16.2747 61.3212 16.968C60.9159 17.6613 60.3613 18.2 59.6573 18.584C58.9639 18.9573 58.1853 19.144 57.3213 19.144ZM57.3213 17.192C57.7266 17.192 58.1053 17.096 58.4573 16.904C58.8199 16.7013 59.1079 16.4027 59.3213 16.008C59.5346 15.6133 59.6413 15.1333 59.6413 14.568C59.6413 13.7253 59.4173 13.08 58.9693 12.632C58.5319 12.1733 57.9933 11.944 57.3533 11.944C56.7133 11.944 56.1746 12.1733 55.7373 12.632C55.3106 13.08 55.0973 13.7253 55.0973 14.568C55.0973 15.4107 55.3053 16.0613 55.7213 16.52C56.1479 16.968 56.6813 17.192 57.3213 17.192ZM68.5004 10.008C69.5564 10.008 70.4097 10.344 71.0604 11.016C71.711 11.6773 72.0364 12.6053 72.0364 13.8V19H69.7964V14.104C69.7964 13.4 69.6204 12.8613 69.2684 12.488C68.9164 12.104 68.4364 11.912 67.8284 11.912C67.2097 11.912 66.719 12.104 66.3564 12.488C66.0044 12.8613 65.8284 13.4 65.8284 14.104V19H63.5884V10.136H65.8284V11.24C66.127 10.856 66.5057 10.5573 66.9644 10.344C67.4337 10.12 67.9457 10.008 68.5004 10.008ZM77.5585 19.144C76.8332 19.144 76.1825 19.016 75.6065 18.76C75.0305 18.4933 74.5718 18.136 74.2305 17.688C73.8998 17.24 73.7185 16.744 73.6865 16.2H75.9425C75.9852 16.5413 76.1505 16.824 76.4385 17.048C76.7372 17.272 77.1052 17.384 77.5425 17.384C77.9692 17.384 78.2998 17.2987 78.5345 17.128C78.7798 16.9573 78.9025 16.7387 78.9025 16.472C78.9025 16.184 78.7532 15.9707 78.4545 15.832C78.1665 15.6827 77.7025 15.5227 77.0625 15.352C76.4012 15.192 75.8572 15.0267 75.4305 14.856C75.0145 14.6853 74.6518 14.424 74.3425 14.072C74.0438 13.72 73.8945 13.2453 73.8945 12.648C73.8945 12.1573 74.0332 11.7093 74.3105 11.304C74.5985 10.8987 75.0038 10.5787 75.5265 10.344C76.0598 10.1093 76.6838 9.992 77.3985 9.992C78.4545 9.992 79.2972 10.2587 79.9265 10.792C80.5558 11.3147 80.9025 12.024 80.9665 12.92H78.8225C78.7905 12.568 78.6412 12.2907 78.3745 12.088C78.1185 11.8747 77.7718 11.768 77.3345 11.768C76.9292 11.768 76.6145 11.8427 76.3905 11.992C76.1772 12.1413 76.0705 12.3493 76.0705 12.616C76.0705 12.9147 76.2198 13.144 76.5185 13.304C76.8172 13.4533 77.2812 13.608 77.9105 13.768C78.5505 13.928 79.0785 14.0933 79.4945 14.264C79.9105 14.4347 80.2678 14.7013 80.5665 15.064C80.8758 15.416 81.0358 15.8853 81.0465 16.472C81.0465 16.984 80.9025 17.4427 80.6145 17.848C80.3372 18.2533 79.9318 18.5733 79.3985 18.808C78.8758 19.032 78.2625 19.144 77.5585 19.144ZM91.2533 10.136V19H88.9973V17.88C88.7093 18.264 88.3306 18.568 87.8613 18.792C87.4026 19.0053 86.9013 19.112 86.3573 19.112C85.6639 19.112 85.0506 18.968 84.5173 18.68C83.9839 18.3813 83.5626 17.9493 83.2533 17.384C82.9546 16.808 82.8053 16.1253 82.8053 15.336V10.136H85.0453V15.016C85.0453 15.72 85.2213 16.264 85.5733 16.648C85.9253 17.0213 86.4053 17.208 87.0133 17.208C87.6319 17.208 88.1173 17.0213 88.4693 16.648C88.8213 16.264 88.9973 15.72 88.9973 15.016V10.136H91.2533ZM95.7034 7.16V19H93.4634V7.16H95.7034ZM100.525 11.976V16.264C100.525 16.5627 100.594 16.7813 100.733 16.92C100.882 17.048 101.127 17.112 101.469 17.112H102.509V19H101.101C99.2125 19 98.2685 18.0827 98.2685 16.248V11.976H97.2125V10.136H98.2685V7.944H100.525V10.136H102.509V11.976H100.525ZM103.544 14.536C103.544 13.64 103.72 12.8453 104.072 12.152C104.434 11.4587 104.92 10.9253 105.528 10.552C106.146 10.1787 106.834 9.992 107.592 9.992C108.253 9.992 108.829 10.1253 109.32 10.392C109.821 10.6587 110.221 10.9947 110.52 11.4V10.136H112.776V19H110.52V17.704C110.232 18.12 109.832 18.4667 109.32 18.744C108.818 19.0107 108.237 19.144 107.576 19.144C106.829 19.144 106.146 18.952 105.528 18.568C104.92 18.184 104.434 17.6453 104.072 16.952C103.72 16.248 103.544 15.4427 103.544 14.536ZM110.52 14.568C110.52 14.024 110.413 13.56 110.2 13.176C109.986 12.7813 109.698 12.4827 109.336 12.28C108.973 12.0667 108.584 11.96 108.168 11.96C107.752 11.96 107.368 12.0613 107.016 12.264C106.664 12.4667 106.376 12.7653 106.152 13.16C105.938 13.544 105.832 14.0027 105.832 14.536C105.832 15.0693 105.938 15.5387 106.152 15.944C106.376 16.3387 106.664 16.6427 107.016 16.856C107.378 17.0693 107.762 17.176 108.168 17.176C108.584 17.176 108.973 17.0747 109.336 16.872C109.698 16.6587 109.986 16.36 110.2 15.976C110.413 15.5813 110.52 15.112 110.52 14.568ZM117.571 11.976V16.264C117.571 16.5627 117.641 16.7813 117.779 16.92C117.929 17.048 118.174 17.112 118.515 17.112H119.555V19H118.147C116.259 19 115.315 18.0827 115.315 16.248V11.976H114.259V10.136H115.315V7.944H117.571V10.136H119.555V11.976H117.571ZM122.303 9.08C121.908 9.08 121.577 8.95733 121.311 8.712C121.055 8.456 120.927 8.14133 120.927 7.768C120.927 7.39467 121.055 7.08533 121.311 6.84C121.577 6.584 121.908 6.456 122.303 6.456C122.697 6.456 123.023 6.584 123.279 6.84C123.545 7.08533 123.679 7.39467 123.679 7.768C123.679 8.14133 123.545 8.456 123.279 8.712C123.023 8.95733 122.697 9.08 122.303 9.08ZM123.407 10.136V19H121.167V10.136H123.407ZM129.556 19.144C128.702 19.144 127.934 18.9573 127.252 18.584C126.569 18.2 126.03 17.6613 125.636 16.968C125.252 16.2747 125.06 15.4747 125.06 14.568C125.06 13.6613 125.257 12.8613 125.652 12.168C126.057 11.4747 126.606 10.9413 127.3 10.568C127.993 10.184 128.766 9.992 129.62 9.992C130.473 9.992 131.246 10.184 131.94 10.568C132.633 10.9413 133.177 11.4747 133.572 12.168C133.977 12.8613 134.18 13.6613 134.18 14.568C134.18 15.4747 133.972 16.2747 133.556 16.968C133.15 17.6613 132.596 18.2 131.892 18.584C131.198 18.9573 130.42 19.144 129.556 19.144ZM129.556 17.192C129.961 17.192 130.34 17.096 130.692 16.904C131.054 16.7013 131.342 16.4027 131.556 16.008C131.769 15.6133 131.876 15.1333 131.876 14.568C131.876 13.7253 131.652 13.08 131.204 12.632C130.766 12.1733 130.228 11.944 129.588 11.944C128.948 11.944 128.409 12.1733 127.972 12.632C127.545 13.08 127.332 13.7253 127.332 14.568C127.332 15.4107 127.54 16.0613 127.956 16.52C128.382 16.968 128.916 17.192 129.556 17.192ZM140.735 10.008C141.791 10.008 142.644 10.344 143.295 11.016C143.945 11.6773 144.271 12.6053 144.271 13.8V19H142.031V14.104C142.031 13.4 141.855 12.8613 141.503 12.488C141.151 12.104 140.671 11.912 140.063 11.912C139.444 11.912 138.953 12.104 138.591 12.488C138.239 12.8613 138.063 13.4 138.063 14.104V19H135.823V10.136H138.063V11.24C138.361 10.856 138.74 10.5573 139.199 10.344C139.668 10.12 140.18 10.008 140.735 10.008Z" fill="#FF64AE"/>
<path d="M22.6562 6.25H13.2812L10.1562 3.125H2.34375C1.04932 3.125 0 4.17432 0 5.46875V19.5312C0 20.8257 1.04932 21.875 2.34375 21.875H22.6562C23.9507 21.875 25 20.8257 25 19.5312V8.59375C25 7.29932 23.9507 6.25 22.6562 6.25Z" fill="#FF64AE"/>
</svg>
